<!DOCTYPE svg PUBLIC "-//W3C//DTD SVG 1.1//EN" "http://www.w3.org/Graphics/SVG/1.1/DTD/svg11.dtd">
<!-- Uploaded to: SVG Repo, www.svgrepo.com, Transformed by: SVG Repo Mixer Tools -->
<svg fill="#ffffff" version="1.1" id="Capa_1" xmlns="http://www.w3.org/2000/svg" xmlns:xlink="http://www.w3.org/1999/xlink" width="800px" height="800px" viewBox="0 0 573.353 573.353" xml:space="preserve" stroke="#ffffff">
<g id="SVGRepo_bgCarrier" stroke-width="0"/>
<g id="SVGRepo_tracerCarrier" stroke-linecap="round" stroke-linejoin="round"/>
<g id="SVGRepo_iconCarrier"> <g> <path d="M46.732,323.083c2.381,0,4.771-0.345,7.095-1.004c11.15-3.166,28.057-6.952,45.24-6.952 c18.637,0,33.689,4.38,44.762,13.015c14.717,11.475,27.836,20.109,40.526,28.467c21.238,13.972,41.3,27.168,63.667,51.026 l9.104,9.677c31.795,33.756,61.831,65.637,76.069,99.842c6.11,14.621,12.278,27.731,18.341,38.978 c5.288,9.811,18.504,17.222,30.763,17.222c0.928,0,1.836-0.038,2.726-0.124l3.815-0.373c6.637-0.641,12.326-3.959,15.606-9.104 c3.175-4.982,3.776-11.294,1.654-17.299c-4.476-12.632-9.219-23.667-14.114-32.79c-8.195-15.3-6.914-24.03-6.092-26.87 c2.123-0.918,6.359-2.458,10.825-2.458c8.013,0,13.091,5.011,15.539,15.339c4.197,17.747,14.258,35.868,21.955,47.946 c6.388,10.002,21.334,17.958,34.043,18.121l12.813,0.152c6.99,0,11.389-2.037,13.072-6.072c1.73-4.159-0.096-8.97-5.403-14.314 c-13.684-13.742-29.988-36.348-29.988-66.049c0-7.727-0.152-14.362-0.268-20.062c-0.325-14.525-0.517-23.285,2.305-26.163 c2.247-2.314,8.97-2.879,22.51-2.563c35.946,0.87,62.473-6.244,63.524-6.54c1.932-0.526,3.337-2.199,3.5-4.198 c0.2-2.219,1.501-21.86-11.523-27.875c-7.994-3.69-20.693-24.795-22.548-29.395c0.42-0.688,1.042-1.598,1.769-2.688 c6.168-9.295,20.579-31.059,6.694-50.06c-1.187-1.626-3.28-2.314-5.202-1.77c-1.941,0.574-3.309,2.286-3.424,4.304 c-1.281,21.42-16.619,31.92-19.985,33.966c-6.062,1.014-12.546,1.147-15.874,0.86c-2.591-8.338-6.55-24.738-3.509-32.847 c0.889-2.362,1.683-5.384-0.058-7.89c-0.899-1.29-2.897-2.323-4.466-2.323c-7.659,0-21.009,20.951-22.52,42.792 c-5.489,0.373-19.689-0.258-49.046-10.738l1.893-27.282c0.345-4.991-2.906-11.035-7.258-13.512l-32.685-18.608 c-4.351-2.467-7.822-8.53-7.765-13.55l-2.812-38.279l78.355,13.598c1.033,0.182,2.085,0.268,3.107,0.268 c8.645,0,16.305-6.215,17.834-15.022c1.702-9.859-4.896-19.24-14.755-20.942l-72.082-12.508l-12.957-39.637 c-1.09-3.318-3.069-6.062-5.565-8.166l-0.162-2.209c-1.798-4.667-7.229-7.612-12.126-6.579l-49.39,10.423 c-4.896,1.033-8.54,5.919-8.157,10.911l6.627,85.852c-14.784-15.597-30.409-27.808-50.012-30.198 c-4.781-12.728-25.771-60.349-72.589-62.577c-37.083-1.712-65.819,11.791-79.187,19.661c-3.328,1.96-5.413,5.011-5.881,8.587 c-0.487,3.777,0.928,7.66,3.883,10.662c4.571,4.638,10.863,11.762,14.908,19.374c3.901,7.306,12.125,9.276,18.255,4.294 l16.906-13.684c0.22-0.201,5.508-4.829,16.142-4.829c6.158,0,12.89,1.568,20.005,4.657c18.886,8.214,24.537,16.094,25.934,21.258 c1.052,3.863-0.134,6.818-0.794,8.061c-5.25,3.06-27.731,16.878-38.929,35.257c-2.286,3.749-4.514,4.523-7.163,4.523 c-3.557,0-8.166-1.568-13.493-3.385c-7.458-2.544-16.753-5.699-27.282-5.699c-5.403,0-10.777,0.841-15.969,2.505l-18.217,5.766 c-12.164,3.834-21.726,6.856-30.16,9.802c-12.354,4.293-19.144,18.226-14.946,31.689C27.244,316.676,36.108,323.083,46.732,323.083 z"/> <path d="M343.6,11.46c-2.305-11.686-12.402-14.975-22.587-7.354L299.517,20.21l-28.124-8.109 c-12.202-3.528-22.146,3.921-22.204,16.629l-0.124,29.261L231.221,71.36c-10.184,7.622-11.666,19.594-3.337,26.756 c8.338,7.153,23.342,6.771,33.517-0.841l1.473-1.109c6.407,12.794,19.067,22.061,34.377,23.141 c23.084,1.626,43.089-15.769,44.724-38.833c0.928-13.148-4.465-25.168-13.416-33.498l0.774-0.583 C339.507,38.781,345.895,23.136,343.6,11.46z"/> </g> </g>
</svg>